<svg width="100%" height="100%" viewBox="0 0 32 32" fill="none" xmlns="http://www.w3.org/2000/svg">
<path fill-rule="evenodd" clip-rule="evenodd" d="M23.9993 5.33341H7.99935C6.52659 5.33341 5.33268 6.52732 5.33268 8.00008V24.0001C5.33268 25.4729 6.52659 26.6667 7.99935 26.6667H23.9993C25.4721 26.6667 26.666 25.4729 26.666 24.0001V8.00008C26.666 6.52732 25.4721 5.33341 23.9993 5.33341ZM7.99935 2.66675C5.05383 2.66675 2.66602 5.05456 2.66602 8.00008V24.0001C2.66602 26.9455 5.05383 29.3334 7.99935 29.3334H23.9993C26.9448 29.3334 29.3327 26.9455 29.3327 24.0001V8.00008C29.3327 5.05456 26.9448 2.66675 23.9993 2.66675H7.99935Z" fill="white"/>
<path fill-rule="evenodd" clip-rule="evenodd" d="M15.8896 13.3333C15.8896 11.1241 17.6804 9.33325 19.8896 9.33325H22.6673V11.9999H19.8896C19.1532 11.9999 18.5563 12.5969 18.5563 13.3333V15.9999H22.6673V18.6666H18.5563V26.6666H15.8896V18.6666H13.334V15.9999H15.8896V13.3333Z" fill="white"/>
</svg>
