<svg width="100%" height="100%" viewBox="0 0 158 158" fill="none" xmlns="http://www.w3.org/2000/svg">
<g filter="url(#filter0_d_2315_43116)">
<g clip-path="url(#clip0_2315_43116)">
<rect x="21" y="17" width="120" height="120" rx="60" fill="white"/>
<path d="M66.8498 94.9C65.8998 94.9 64.9498 94.55 64.1998 93.8C62.7498 92.35 62.7498 89.95 64.1998 88.5L92.4998 60.2C93.9498 58.75 96.3498 58.75 97.7998 60.2C99.2498 61.65 99.2498 64.05 97.7998 65.5L69.4998 93.8C68.7998 94.55 67.7998 94.9 66.8498 94.9Z" fill="#C91433"/>
<path d="M95.1498 94.9C94.1998 94.9 93.2498 94.55 92.4998 93.8L64.1998 65.5C62.7498 64.05 62.7498 61.65 64.1998 60.2C65.6498 58.75 68.0498 58.75 69.4998 60.2L97.7998 88.5C99.2498 89.95 99.2498 92.35 97.7998 93.8C97.0498 94.55 96.0998 94.9 95.1498 94.9Z" fill="#C91433"/>
</g>
</g>
<defs>
<filter id="filter0_d_2315_43116" x="0" y="0" width="158" height="158" filterUnits="userSpaceOnUse" color-interpolation-filters="sRGB">
<feFlood flood-opacity="0" result="BackgroundImageFix"/>
<feColorMatrix in="SourceAlpha" type="matrix" values="0 0 0 0 0 0 0 0 0 0 0 0 0 0 0 0 0 0 127 0" result="hardAlpha"/>
<feMorphology radius="1" operator="erode" in="SourceAlpha" result="effect1_dropShadow_2315_43116"/>
<feOffset dx="-2" dy="2"/>
<feGaussianBlur stdDeviation="10"/>
<feComposite in2="hardAlpha" operator="out"/>
<feColorMatrix type="matrix" values="0 0 0 0 0.443137 0 0 0 0 0.443137 0 0 0 0 0.443137 0 0 0 0.2 0"/>
<feBlend mode="normal" in2="BackgroundImageFix" result="effect1_dropShadow_2315_43116"/>
<feBlend mode="normal" in="SourceGraphic" in2="effect1_dropShadow_2315_43116" result="shape"/>
</filter>
<clipPath id="clip0_2315_43116">
<rect x="21" y="17" width="120" height="120" rx="60" fill="white"/>
</clipPath>
</defs>
</svg>
